<svg width="0" height="0" class="hidden">
  <symbol xmlns="http://www.w3.org/2000/svg" fill="none" viewBox="0 0 20 20" id="icon-instagram">
    <path fill="#fff" d="M5.556 0A5.562 5.562 0 0 0 0 5.556v8.888A5.562 5.562 0 0 0 5.556 20h8.888A5.562 5.562 0 0 0 20 14.444V5.556A5.562 5.562 0 0 0 14.444 0H5.556Zm0 2.222h8.888a3.337 3.337 0 0 1 3.334 3.334v8.888a3.337 3.337 0 0 1-3.334 3.334H5.556a3.337 3.337 0 0 1-3.334-3.334V5.556a3.337 3.337 0 0 1 3.334-3.334Zm10 1.111a1.111 1.111 0 1 0 0 2.223 1.111 1.111 0 0 0 0-2.223ZM10 4.444A5.562 5.562 0 0 0 4.444 10 5.562 5.562 0 0 0 10 15.556 5.562 5.562 0 0 0 15.556 10 5.562 5.562 0 0 0 10 4.444Zm0 2.223A3.337 3.337 0 0 1 13.333 10 3.337 3.337 0 0 1 10 13.333 3.337 3.337 0 0 1 6.667 10 3.337 3.337 0 0 1 10 6.667Z"></path>
  </symbol>
  <symbol xmlns="http://www.w3.org/2000/svg" fill="none" viewBox="0 0 22 22" id="icon-telegram">
    <path stroke="#fff" stroke-linejoin="round" stroke-width="2" d="M21 11c0 5.523-4.477 10-10 10S1 16.523 1 11 5.477 1 11 1s10 4.477 10 10Zm-9.642-2.618c-.972.405-2.916 1.242-5.831 2.512-.474.189-.722.373-.744.553-.039.304.343.424.862.587l.218.07c.51.166 1.198.36 1.555.368.324.007.685-.127 1.084-.4 2.724-1.84 4.13-2.769 4.218-2.789.063-.014.149-.032.207.02.059.052.053.15.047.177-.038.161-1.534 1.552-2.308 2.271-.241.225-.413.384-.448.42a8.817 8.817 0 0 1-.235.233c-.474.457-.83.8.02 1.36.408.27.735.492 1.061.714.356.242.711.484 1.17.785.118.077.23.156.338.234.415.296.787.56 1.247.518.267-.024.543-.275.683-1.025.332-1.77.983-5.608 1.133-7.19a1.757 1.757 0 0 0-.017-.393.421.421 0 0 0-.142-.27c-.12-.098-.305-.118-.387-.117-.377.007-.954.207-3.73 1.362Z" clip-rule="evenodd"></path>
  </symbol>
  <symbol xmlns="http://www.w3.org/2000/svg" fill="none" viewBox="0 0 23 20" id="icon-twitter">
    <path fill="#fff" fill-rule="evenodd" d="M19.406 4.788a.664.664 0 0 0-.256.556c.007.193.012.387.012.583 0 6.261-4.41 12.74-11.788 12.74-1.442 0-2.864-.287-4.2-.84a9.232 9.232 0 0 0 4.427-2.052.668.668 0 0 0-.417-1.178c-1.244-.025-2.371-.74-3.027-1.856.45-.013.933-.084 1.296-.189a.668.668 0 0 0-.044-1.292c-1.324-.287-2.299-1.379-2.628-2.879.379.076.736.1.933.106.291.032.559-.171.655-.45a.668.668 0 0 0-.241-.757C3.206 6.616 2.22 5.377 2.22 3.899c0-.364.045-.724.132-1.072C4.656 5.39 7.8 6.939 11.132 7.119a.671.671 0 0 0 .69-.807 4.34 4.34 0 0 1-.1-.933c0-2.231 1.666-4.046 3.712-4.046 1.03 0 1.987.447 2.694 1.26a.667.667 0 0 0 .64.215 8.936 8.936 0 0 0 1-.273c-.195.197-.41.373-.643.524a.666.666 0 0 0 .447 1.221c.173-.023.345-.05.516-.083a7.99 7.99 0 0 1-.682.591Zm3.09-2.357a.67.67 0 0 0-.784-.156l-.146.068c.202-.358.366-.74.484-1.142a.665.665 0 0 0-.998-.752 7.712 7.712 0 0 1-2.202.97A4.887 4.887 0 0 0 15.434 0c-2.781 0-5.045 2.413-5.045 5.379 0 .112.003.224.01.334-3.009-.389-5.789-2.03-7.723-4.586a.683.683 0 0 0-.582-.262.668.668 0 0 0-.537.348A5.674 5.674 0 0 0 .887 3.9c0 1.022.338 1.948.829 2.724a.67.67 0 0 0-.39.606v.062c0 1.65.588 3.092 1.576 4.066a.667.667 0 0 0-.43.823c.481 1.617 1.626 2.859 3.05 3.421a7.903 7.903 0 0 1-4.774.954.65.65 0 0 0-.704.425.665.665 0 0 0 .245.785C2.41 19.227 4.861 20 7.374 20c8.214 0 13.122-7.156 13.122-14.073 0-.102-.002-.202-.004-.302a9.91 9.91 0 0 0 2.074-2.397.666.666 0 0 0-.07-.797Z" clip-rule="evenodd"></path>
  </symbol>
  <symbol xmlns="http://www.w3.org/2000/svg" fill="none" viewBox="0 0 56 57" id="logo">
    <path fill="currentColor" d="M0 .5h56v56H0z"></path>
    <path fill="#FBD649" d="M13.04 28.243h19.786c1.03 0 1.78-.29 2.252-.869.493-.58.74-1.319.74-2.22 0-.279-.032-.579-.097-.9a2.72 2.72 0 0 0-.354-.934c-.15-.3-.354-.536-.611-.707a1.51 1.51 0 0 0-.933-.29H13.04V16.5h23.743c1.222 0 2.252.204 3.088.611.858.408 1.49.826 1.898 1.255.408.429.708.869.901 1.319.193.429.29.772.29 1.03v6.176c0 .472-.14.912-.418 1.32-.28.407-.59.782-.933 1.126-.344.321-.805.814-1.384 1.48.365.321.708.621 1.03.9.343.279.632.569.868.869.258.279.462.579.612.9.15.322.225.676.225 1.062V40.5h-7.528v-4.954c0-.065-.086-.161-.258-.29a3.393 3.393 0 0 0-.611-.418 3.703 3.703 0 0 0-.611-.354c-.193-.107-.322-.16-.386-.16H20.568V40.5H13.04V28.243Z"></path>
  </symbol>
  <symbol xmlns="http://www.w3.org/2000/svg" fill="none" viewBox="0 0 104 104" id="icon-play">
    <path fill="currentColor" d="M52 0C23.283 0 0 23.283 0 52s23.283 52 52 52 52-23.283 52-52S80.717 0 52 0ZM32.5 78V26l52.026 26L32.5 78Z"/>
  </symbol>
  <symbol xmlns="http://www.w3.org/2000/svg" fill="none" viewBox="0 0 24 18" id="icon-hamburger">
    <path fill="currentColor" d="M0 0v2h24V0H0Zm0 8v2h24V8H0Zm0 8v2h24v-2H0Z"/>
  </symbol>
</svg>